HIERARCHY
ROOT hip
{
  OFFSET 18.3521 79.3136 -93.6741
  CHANNELS 6 Xposition Yposition Zposition Zrotation Xrotation Yrotation
  JOINT abdomen
  {
    OFFSET 0 20.6881 -0.73152
    CHANNELS 3 Zrotation Xrotation Yrotation
    JOINT chest
    {
      OFFSET 0 11.7043 -0.48768
      CHANNELS 3 Zrotation Xrotation Yrotation
      JOINT neck
      {
        OFFSET 0 22.1894 -2.19456
        CHANNELS 3 Zrotation Xrotation Yrotation
        JOINT head
        {
          OFFSET -0.24384 7.07133 1.2192
          CHANNELS 3 Zrotation Xrotation Yrotation
          JOINT leftEye
          {
            OFFSET 4.14528 8.04674 8.04672
            CHANNELS 3 Zrotation Xrotation Yrotation
            End Site
            {
              OFFSET 1 0 0
            }
          }
          JOINT rightEye
          {
            OFFSET -3.6576 8.04674 8.04672
            CHANNELS 3 Zrotation Xrotation Yrotation
            End Site
            {
              OFFSET 1 0 0
            }
          }
        }
      }
      JOINT rCollar
      {
        OFFSET -2.68224 19.2634 -4.8768
        CHANNELS 3 Zrotation Xrotation Yrotation
        JOINT rShldr
        {
          OFFSET -8.77824 -1.95073 1.46304
          CHANNELS 3 Zrotation Xrotation Yrotation
          JOINT rForeArm
          {
            OFFSET -28.1742 -1.7115 0.48768
            CHANNELS 3 Zrotation Xrotation Yrotation
            JOINT rHand
            {
              OFFSET -22.5879 0.773209 7.07136
              CHANNELS 3 Zrotation Xrotation Yrotation
              JOINT rThumb1
              {
                OFFSET -1.2192 -0.487915 3.41376
                CHANNELS 3 Zrotation Xrotation Yrotation
                JOINT rThumb2
                {
                  OFFSET -3.37035 -0.52449 3.41376
                  CHANNELS 3 Zrotation Xrotation Yrotation
                  End Site
                  {
                    OFFSET -1.78271 -1.18214 1.43049
                  }
                }
              }
              JOINT rIndex1
              {
                OFFSET -7.75947 0.938293 5.60832
                CHANNELS 3 Zrotation Xrotation Yrotation
                JOINT rIndex2
                {
                  OFFSET -2.54057 -0.884171 1.56538
                  CHANNELS 3 Zrotation Xrotation Yrotation
                  End Site
                  {
                    OFFSET -1.62519 -0.234802 1.16502
                  }
                }
              }
              JOINT rMid1
              {
                OFFSET -8.24714 1.18213 3.41376
                CHANNELS 3 Zrotation Xrotation Yrotation
                JOINT rMid2
                {
                  OFFSET -3.10165 -0.590103 1.0647
                  CHANNELS 3 Zrotation Xrotation Yrotation
                  End Site
                  {
                    OFFSET -2.48547 -0.328903 0.83742
                  }
                }
              }
              JOINT rRing1
              {
                OFFSET -8.82822 0.546677 1.51678
                CHANNELS 3 Zrotation Xrotation Yrotation
                JOINT rRing2
                {
                  OFFSET -2.60934 -0.819778 -0.0198488
                  CHANNELS 3 Zrotation Xrotation Yrotation
                  End Site
                  {
                    OFFSET -2.33842 -0.294052 0.168128
                  }
                }
              }
              JOINT rPinky1
              {
                OFFSET -8.27202 -0.0477905 -0.4584
                CHANNELS 3 Zrotation Xrotation Yrotation
                JOINT rPinky2
                {
                  OFFSET -1.82734 -0.647385 -0.700984
                  CHANNELS 3 Zrotation Xrotation Yrotation
                  End Site
                  {
                    OFFSET -1.69225 -0.51767 -0.607171
                  }
                }
              }
            }
          }
        }
      }
      JOINT lCollar
      {
        OFFSET 2.68224 19.2634 -4.8768
        CHANNELS 3 Zrotation Xrotation Yrotation
        JOINT lShldr
        {
          OFFSET 8.77824 -1.95073 1.46304
          CHANNELS 3 Zrotation Xrotation Yrotation
          JOINT lForeArm
          {
            OFFSET 28.1742 -1.7115 0.48768
            CHANNELS 3 Zrotation Xrotation Yrotation
            JOINT lHand
            {
              OFFSET 22.5879 0.773209 7.07136
              CHANNELS 3 Zrotation Xrotation Yrotation
              JOINT lThumb1
              {
                OFFSET 1.2192 -0.487915 3.41376
                CHANNELS 3 Zrotation Xrotation Yrotation
                JOINT lThumb2
                {
                  OFFSET 3.37035 -0.52449 3.41376
                  CHANNELS 3 Zrotation Xrotation Yrotation
                  End Site
                  {
                    OFFSET 1.78271 -1.18214 1.43049
                  }
                }
              }
              JOINT lIndex1
              {
                OFFSET 7.75947 0.938293 5.60832
                CHANNELS 3 Zrotation Xrotation Yrotation
                JOINT lIndex2
                {
                  OFFSET 2.54057 -0.884171 1.56538
                  CHANNELS 3 Zrotation Xrotation Yrotation
                  End Site
                  {
                    OFFSET 1.62519 -0.234802 1.16502
                  }
                }
              }
              JOINT lMid1
              {
                OFFSET 8.24714 1.18213 3.41376
                CHANNELS 3 Zrotation Xrotation Yrotation
                JOINT lMid2
                {
                  OFFSET 3.10165 -0.590103 1.0647
                  CHANNELS 3 Zrotation Xrotation Yrotation
                  End Site
                  {
                    OFFSET 2.48547 -0.328903 0.83742
                  }
                }
              }
              JOINT lRing1
              {
                OFFSET 8.82822 0.546677 1.51678
                CHANNELS 3 Zrotation Xrotation Yrotation
                JOINT lRing2
                {
                  OFFSET 2.60934 -0.819778 -0.0198488
                  CHANNELS 3 Zrotation Xrotation Yrotation
                  End Site
                  {
                    OFFSET 2.33842 -0.294052 0.168128
                  }
                }
              }
              JOINT lPinky1
              {
                OFFSET 8.27202 -0.0477905 -0.4584
                CHANNELS 3 Zrotation Xrotation Yrotation
                JOINT lPinky2
                {
                  OFFSET 1.82734 -0.647385 -0.700984
                  CHANNELS 3 Zrotation Xrotation Yrotation
                  End Site
                  {
                    OFFSET 1.69225 -0.51767 -0.607171
                  }
                }
              }
            }
          }
        }
      }
    }
  }
  JOINT rButtock
  {
    OFFSET -8.77824 4.35084 1.2192
    CHANNELS 3 Zrotation Xrotation Yrotation
    JOINT rThigh
    {
      OFFSET 0 -1.70687 -2.19456
      CHANNELS 3 Zrotation Xrotation Yrotation
      JOINT rShin
      {
        OFFSET 0 -36.8199 0.73152
        CHANNELS 3 Zrotation Xrotation Yrotation
        JOINT rFoot
        {
          OFFSET 0.73152 -45.1104 -5.12064
          CHANNELS 3 Zrotation Xrotation Yrotation
          End Site
          {
            OFFSET -1.1221 -3.69964 12.103
          }
        }
      }
    }
  }
  JOINT lButtock
  {
    OFFSET 8.77824 4.35084 1.2192
    CHANNELS 3 Zrotation Xrotation Yrotation
    JOINT lThigh
    {
      OFFSET 0 -1.70687 -2.19456
      CHANNELS 3 Zrotation Xrotation Yrotation
      JOINT lShin
      {
        OFFSET 0 -36.8199 0.73152
        CHANNELS 3 Zrotation Xrotation Yrotation
        JOINT lFoot
        {
          OFFSET -0.73152 -45.1104 -5.12064
          CHANNELS 3 Zrotation Xrotation Yrotation
          End Site
          {
            OFFSET 1.1221 -3.69964 12.103
          }
        }
      }
    }
  }
}
MOTION
Frames:	5
Frame Time:	0.00833333
20.6997 81.8465 28.9384 4.90464 -3.8417 -174.931 -8.70567 5.35618 0.125043 1.92079 0.609754 0.0379496 -1.94074 0.0349778 -0.889327 -4.19987 -8.08994 -1.09577 -0 0 0 -0 0 0 1.24745e-013 3.32872e-014 2.74944e-014 54.9618 40.8303 4.26749 -26.7356 -25.4923 60.0723 -0.14774 10.9045 1.55143 8.08884e-010 1.73301e-009 -9.88915e-010 1.39203e-009 3.04177e-009 -1.7177e-009 8.08883e-010 1.73301e-009 -9.88923e-010 7.73091 5.47488 0.417314 8.08881e-010 1.73301e-009 -9.88916e-010 2.90554 0.965183 0.102902 8.08889e-010 1.73301e-009 -9.8891e-010 10.2786 0.731801 0.0259123 8.08878e-010 1.73301e-009 -9.88899e-010 2.22167 -0.733487 -0.20892 1.24661e-013 3.32805e-014 2.72642e-014 -71.0118 7.78064 5.81294 10.171 -4.24617 -18.1225 0.101916 9.04052 -1.28144 -6.94109e-010 -1.08903e-009 -1.02193e-009 -1.20629e-009 -1.88605e-009 -1.76081e-009 -6.94111e-010 -1.08903e-009 -1.02192e-009 -7.73091 5.47488 -0.417314 -6.94106e-010 -1.08903e-009 -1.02192e-009 -2.90554 0.965183 -0.102902 -6.94113e-010 -1.08903e-009 -1.02193e-009 -10.2786 0.731801 -0.0259123 -6.94104e-010 -1.08903e-009 -1.02193e-009 -2.22167 -0.733487 0.20892 -2.03217e-016 0 -3.88251e-019 -6.88073 -13.6116 8.01348 -1.02899 60.0622 1.65088 -4.63436 26.554 10.478 2.03217e-016 0 3.88251e-019 -8.7958 -22.5868 -1.87317 0.125209 24.1459 -0.361141 1.36212 -4.51629 6.29541 
20.5523 81.8467 28.1515 5.14154 -3.69045 -175.083 -8.76918 5.38611 -0.151427 1.93992 0.549383 -0.049161 -1.85878 0.210297 -0.817306 -4.40369 -7.69042 -0.930328 -0 0 0 -0 0 0 1.46895e-013 6.43086e-014 5.19139e-014 54.4892 41.336 4.61159 -26.735 -25.4905 60.0692 -0.136824 10.5078 1.49362 6.81214e-010 2.31344e-009 -1.06368e-009 1.17157e-009 4.03991e-009 -1.84579e-009 6.81213e-010 2.31344e-009 -1.0637e-009 7.73091 5.47488 0.417314 6.81211e-010 2.31344e-009 -1.06369e-009 2.90554 0.965183 0.102902 6.81221e-010 2.31344e-009 -1.06368e-009 10.2786 0.731801 0.0259123 6.81207e-010 2.31344e-009 -1.06367e-009 2.22167 -0.733487 -0.20892 1.46831e-013 6.43051e-014 5.16312e-014 -70.942 9.89324 4.60515 10.3514 -4.35799 -18.4619 0.0950138 8.73315 -1.23716 -1.40436e-009 -1.49499e-009 -8.05814e-010 -2.43298e-009 -2.58748e-009 -1.38135e-009 -1.40436e-009 -1.49499e-009 -8.05801e-010 -7.73091 5.47488 -0.417314 -1.40436e-009 -1.49499e-009 -8.05806e-010 -2.90554 0.965183 -0.102902 -1.40436e-009 -1.49499e-009 -8.05809e-010 -10.2786 0.731801 -0.0259123 -1.40435e-009 -1.49499e-009 -8.05817e-010 -2.22167 -0.733487 0.20892 -2.03217e-016 0 -3.88251e-019 -7.21408 -15.0968 7.59208 -1.16804 62.0095 1.76868 -3.82696 24.3026 9.37246 2.03217e-016 0 3.88251e-019 -9.15618 -21.7897 -1.74455 0.123107 23.9574 -0.342698 1.32985 -4.94341 5.88065 
20.4155 81.8466 27.3318 5.31965 -3.56701 -175.239 -8.76191 5.37264 -0.400814 1.94057 0.496555 -0.129062 -1.78425 0.423158 -0.766869 -4.54853 -7.30948 -0.802908 -0 0 0 -0 0 0 1.54804e-013 8.78257e-014 7.96598e-014 54.0505 41.8249 4.89257 -26.7413 -25.5095 60.0984 -0.12649 10.1028 1.43484 5.52205e-010 2.82273e-009 -1.11447e-009 9.48744e-010 4.91468e-009 -1.93224e-009 5.52204e-010 2.82274e-009 -1.11449e-009 7.73091 5.47488 0.417314 5.52203e-010 2.82273e-009 -1.11448e-009 2.90554 0.965183 0.102902 5.52214e-010 2.82273e-009 -1.11447e-009 10.2786 0.731801 0.0259123 5.52197e-010 2.82273e-009 -1.11446e-009 2.22167 -0.733487 -0.20892 1.54759e-013 8.78256e-014 7.93294e-014 -70.7686 12.0106 3.35311 10.5294 -4.46962 -18.7979 0.0894448 8.49232 -1.20246 -2.03551e-009 -1.84621e-009 -4.8911e-010 -3.52224e-009 -3.19401e-009 -8.28606e-010 -2.03551e-009 -1.84621e-009 -4.89099e-010 -7.73091 5.47488 -0.417314 -2.03551e-009 -1.84621e-009 -4.89103e-010 -2.90554 0.965183 -0.102902 -2.03551e-009 -1.84621e-009 -4.89106e-010 -10.2786 0.731801 -0.0259123 -2.03551e-009 -1.84622e-009 -4.89116e-010 -2.22167 -0.733487 0.20892 -2.03217e-016 0 -3.88251e-019 -7.49442 -16.5788 7.13686 -1.31345 63.789 1.89038 -3.06385 21.8036 8.24803 2.03217e-016 0 3.88251e-019 -9.44346 -21.015 -1.61364 0.120931 23.7787 -0.324038 1.29217 -5.37194 5.46132 
20.2703 81.8635 26.5183 5.47431 -3.48435 -175.402 -8.752 5.32889 -0.599029 1.95364 0.479679 -0.193677 -1.71666 0.570051 -0.747337 -4.62261 -6.92923 -0.735913 -0 0 0 -0 0 0 1.3679e-013 9.06448e-014 1.01927e-013 53.6229 42.2132 5.17826 -26.7475 -25.5287 60.1282 -0.119208 9.79795 1.39073 5.08558e-010 3.06971e-009 -1.13747e-009 8.73168e-010 5.33959e-009 -1.97132e-009 5.08558e-010 3.06972e-009 -1.13748e-009 7.73091 5.47488 0.417314 5.08557e-010 3.06971e-009 -1.13747e-009 2.90554 0.965183 0.102902 5.08567e-010 3.06971e-009 -1.13747e-009 10.2786 0.731801 0.0259123 5.08549e-010 3.06971e-009 -1.13746e-009 2.22167 -0.733487 -0.20892 1.36747e-013 9.0647e-014 1.01579e-013 -70.4819 13.9495 1.96655 10.7011 -4.57851 -19.123 0.0845572 8.26678 -1.17003 -2.32164e-009 -1.97113e-009 -1.70195e-010 -4.01502e-009 -3.40908e-009 -2.74774e-010 -2.32165e-009 -1.97113e-009 -1.70185e-010 -7.73091 5.47488 -0.417314 -2.32164e-009 -1.97113e-009 -1.70188e-010 -2.90554 0.965183 -0.102902 -2.32165e-009 -1.97113e-009 -1.70191e-010 -10.2786 0.731801 -0.0259123 -2.32164e-009 -1.97113e-009 -1.70201e-010 -2.22167 -0.733487 0.20892 -2.03217e-016 0 -3.88251e-019 -7.73156 -18.1196 6.68645 -1.46334 65.397 2.01753 -2.45738 19.6379 7.19844 2.03217e-016 0 3.88251e-019 -9.68947 -20.2721 -1.44181 0.118437 23.5899 -0.307547 1.25034 -5.76791 5.04716 
20.1452 81.9319 25.6925 5.61536 -3.44857 -175.555 -8.76489 5.24842 -0.708628 1.98235 0.519557 -0.232344 -1.64742 0.61807 -0.770135 -4.61808 -6.54012 -0.754176 -0 0 0 -0 0 0 7.32939e-014 5.60308e-014 1.21878e-013 53.2223 42.456 5.47757 -26.7531 -25.546 60.1557 -0.115526 9.63956 1.36784 6.4215e-010 3.07529e-009 -1.17307e-009 1.10304e-009 5.35541e-009 -2.03353e-009 6.4215e-010 3.07529e-009 -1.17308e-009 7.73091 5.47488 0.417314 6.42149e-010 3.07529e-009 -1.17308e-009 2.90554 0.965183 0.102902 6.42157e-010 3.07528e-009 -1.17307e-009 10.2786 0.731801 0.0259123 6.42142e-010 3.07529e-009 -1.17306e-009 2.22167 -0.733487 -0.20892 7.32199e-014 5.60337e-014 1.21565e-013 -70.0552 15.6483 0.36323 10.8507 -4.67383 -19.4083 0.0798084 8.03004 -1.13608 -2.11037e-009 -1.78777e-009 2.08471e-010 -3.64749e-009 -3.0905e-009 3.78577e-010 -2.11039e-009 -1.78778e-009 2.08481e-010 -7.73091 5.47488 -0.417314 -2.11038e-009 -1.78778e-009 2.08474e-010 -2.90554 0.965183 -0.102902 -2.11038e-009 -1.78778e-009 2.08476e-010 -10.2786 0.731801 -0.0259123 -2.11037e-009 -1.78778e-009 2.08465e-010 -2.22167 -0.733487 0.20892 -2.03217e-016 0 -3.88251e-019 -7.92315 -19.7726 6.24391 -1.6192 66.8553 2.15207 -2.00007 17.8987 6.25375 2.03217e-016 0 3.88251e-019 -9.8943 -19.5433 -1.18603 0.115128 23.3487 -0.292404 1.20372 -6.11388 4.6316 
